<svg width="550" height="550" viewBox="0 0 550 550" fill="none" xmlns="http://www.w3.org/2000/svg">
<g clip-path="url(#clip0_249_91)">
<path d="M10 96V181H96H182V96V11H96H10V96ZM160 96V160H96H32V96V32H96H160V96Z" fill="#4A5565"/>
<path d="M432.5 13.9C422.7 17.4 411.8 23 406.5 27.3C398.7 33.5 386 47.1 386 49.3C386 49.8 384.5 52.8 382.6 55.9C380.8 59 378 65.1 376.5 69.5C373.8 77 373.7 78.5 373.6 95C373.6 116.7 374.6 120.7 385.7 141.5C388.9 147.6 403.9 164 406.2 164C406.7 164 408.8 165.3 410.8 166.9C423 176.4 442.4 181.6 462.5 180.7C474.7 180.2 489.8 176.7 497.7 172.6C511.6 165.5 528.4 148.6 535.6 134.8C538.6 128.9 543 113.7 544.1 104.9C546.5 86.3 540.2 61.1 529.9 47.8C528.3 45.8 527 43.8 527 43.3C527 42.3 520.8 35.8 514.1 29.9C507.9 24.4 492.3 16.1 482.6 13.1C476.8 11.3 473.3 11 458.1 11C441.3 11 440.2 11.2 432.5 13.9ZM473.7 33.9C485.8 36.8 498.3 44.2 505.3 52.7C507.2 55 509.5 57.7 510.5 58.6C512.7 60.8 518.3 73.1 520.5 80.7C522.6 87.8 522.9 101.5 521.1 109C520.4 112 517.8 118.7 515.4 123.7C512 130.9 509.4 134.5 504.2 139.8C500.5 143.6 496 147.5 494.3 148.5C492.5 149.6 491 150.8 491 151.2C491 151.6 490.3 152 489.5 152C488.6 152 485.7 153.1 483 154.5C468.8 161.7 449.6 161.7 434.5 154.6C431.8 153.3 428.6 151.9 427.4 151.6C426.3 151.2 423.6 149.4 421.4 147.4C419.3 145.5 415.6 142.3 413.3 140.3C410.9 138.4 409 136.3 409 135.8C409 135.2 407.7 133.1 406.1 131.1C401.6 125.4 399.2 119.8 397 110.1C394.5 98.9 394.5 93 396.9 81.5C400.4 65.3 410.7 50.9 425.9 41.2C439.3 32.5 456.9 29.8 473.7 33.9Z" fill="#4A5565"/>
<path d="M308.5 51.1C306.3 53.8 303.5 57 302.3 58.2C301 59.4 300 60.7 300 61.2C300 62.4 307.3 70 308.5 70C309.1 70 312.2 72.7 315.5 76C318.8 79.3 322 82 322.6 82C323.2 82 324.3 82.7 325 83.5C326.1 84.8 319.2 85 263.6 85H201V95.5V106H263.8C325.2 106.1 326.5 106.1 324.3 107.9C316 114.9 309 121 305.8 124.2C303.7 126.3 301.6 128 301 128C299.2 128 299.9 129.9 303.3 134.2C307.7 140 312.9 145 314.4 145C315.1 145 316.7 143.9 318 142.5C319.3 141.1 320.9 140 321.6 140C322.3 140 323.9 138.8 325.2 137.2C326.4 135.7 337.4 126 349.5 115.6C361.6 105.2 371.6 96.1 371.8 95.4C372 94.6 371.1 93.6 369.8 93.1C368.5 92.6 365 89.7 362 86.6C359 83.5 356.1 81 355.5 81C355 81 352.3 78.7 349.5 75.9C346.8 73.1 343.3 70.2 341.8 69.4C340.3 68.6 339 67.6 339 67.2C339 65.9 315.2 46 313.8 46.1C313.1 46.1 310.7 48.4 308.5 51.1Z" fill="#4A5565"/>
<path d="M194 276.5V360H278H362V276.5V193H329.5H297V203.5V214H318H339V276.5V339H277.5H216V276.5V214H237H258V203.5V193H226H194V276.5Z" fill="#4A5565"/>
<path d="M271 203.5V214H280.5H290V203.5V193H280.5H271V203.5Z" fill="#4A5565"/>
<path d="M70.1 221.7L45.9 245.3L53.2 252.7C57.2 256.7 60.9 260 61.5 260C62 260 67.5 255.2 73.5 249.4L84.5 238.8L84.8 289.9L85 341H96H107V289.9V238.7L111.8 243C114.4 245.4 119.5 250.2 123.1 253.7C126.8 257.1 130 260 130.4 260C131.9 260 137.1 255.5 141.4 250.5L145.9 245.2L134.1 233.4C112.5 211.5 98 198 96.2 198C95.2 198 83.5 208.6 70.1 221.7Z" fill="#4A5565"/>
<path d="M448 262.6V314.2L442.8 309.1C439.9 306.2 434.8 301.2 431.5 297.9C428.2 294.6 425.2 292 424.8 292C424.4 292 420.7 295.4 416.5 299.6L408.9 307.2L424.7 322.7C455.2 352.6 457.8 355 459.1 355C459.9 355 471.5 344.3 485 331.2L509.4 307.4L502 299.7C497.9 295.5 494.3 292 494 292C493.7 292 488.3 296.9 482 303L470.5 314L470.2 262.5L470 211H459H448V262.6Z" fill="#4A5565"/>
<path d="M412.5 409.5C388.3 433.8 368.4 454.4 368.2 455.2C367.9 456.7 457.1 547 458.8 547C459.2 547 480 526.5 505 501.5L550.5 456L505 410.5C480 385.5 458.8 365.1 458 365.1C457.2 365.2 436.7 385.1 412.5 409.5ZM489.8 426.7C505.3 442.2 518 455.4 518 456C518 456.6 504.7 470.4 488.4 486.7L458.8 516.3L428.7 486.2L398.5 456L428.5 426C453.8 400.7 458.6 396.3 460 397.3C460.8 397.9 474.2 411.2 489.8 426.7Z" fill="#4A5565"/>
<path d="M92.5 370.2C91.7 372 89.2 376.4 87 380C84.8 383.6 82.6 387.5 82 388.7C81.5 390 80.5 392 80 393.2C79.4 394.5 77.6 397.7 75.8 400.5C74.1 403.2 71.1 408.6 69.2 412.5C67.3 416.3 65.2 420.2 64.5 421C63.8 421.8 61.5 425.9 59.4 430C57.3 434.1 54 440.2 52 443.5C50 446.8 46.7 452.7 44.8 456.6C42.8 460.5 39.8 465.8 38.1 468.5C36.4 471.2 35 473.9 35 474.4C34.9 475 32.7 479.1 30 483.5C27.2 487.9 24.5 492.6 23.9 494C21.2 500.2 19.8 502.8 16.8 507.5C15.1 510.2 12.2 515.4 10.4 519C8.6 522.6 6.2 526.8 5.1 528.5C3.9 530.1 3 532.3 3 533.3C3 534.9 7.9 535 95.3 534.8L187.5 534.5L187.2 531.6C187 530.1 186.1 527.6 185.1 526.1C181.9 521.4 175 509.4 175 508.4C175 507.5 166.8 493.4 165.2 491.5C164.7 490.9 164 489.3 163.7 487.9C163.3 486.5 161.8 483.6 160.4 481.4C158.9 479.3 155.2 472.8 152.2 467C149.2 461.2 146.2 455.8 145.5 455C144.8 454.2 142.5 450.1 140.5 446.1C138.5 442 135.8 437 134.5 435.1C133.3 433.1 130 427.1 127.2 421.8C124.3 416.5 120.9 410.4 119.5 408.4C118.1 406.4 117 404.2 117 403.5C117 402.8 114.5 398.3 111.5 393.4C108.5 388.5 105.7 383.8 105.4 383C103.3 377.4 101.6 374 101 374C100.7 374 99.6 372.4 98.7 370.5C96.6 366.1 94.5 366 92.5 370.2ZM104.6 427.5C105.9 430.2 108.8 435.4 111 439C113.2 442.6 115.4 446.4 115.9 447.5C116.4 448.6 117.3 450.6 117.9 452C118.5 453.4 120.4 456.7 122.2 459.5C123.9 462.2 126.9 467.6 128.8 471.5C130.7 475.3 132.8 479.2 133.5 480C134.2 480.8 136.5 484.9 138.6 489C140.7 493.1 144.5 500.1 147.2 504.5C149.8 508.9 152 512.8 152 513.2C152 513.7 126.6 514 95.6 514H39.2L44.7 503.2C47.8 497.3 50.9 491.8 51.5 491C52.2 490.2 54.5 486.1 56.6 482C58.6 477.9 61.8 472.2 63.5 469.5C65.2 466.7 68.5 460.9 70.7 456.4C73 452 76.4 445.8 78.4 442.7C80.4 439.6 82 436.7 82 436.2C82 435.5 88.7 423.4 92.1 418C92.6 417.2 93.5 415.2 94 413.6L95.1 410.7L98.7 416.6C100.6 419.8 103.3 424.7 104.6 427.5Z" fill="#4A5565"/>
<path d="M240.3 408.4C239.1 409.1 235.5 412.2 232.4 415.3C229.2 418.4 226.3 421 225.8 421C225.4 421 222.2 423.7 218.8 427C215.5 430.3 212.1 433 211.3 433C210.6 433 210 433.4 210 433.9C210 434.4 204.8 439.3 198.5 444.7C192.2 450 187 455 187 455.6C187 456.6 197.4 466.1 211.5 478.1C215.5 481.5 227.6 492.2 233 497C240.1 503.5 242.2 504.9 244 505C245.4 505 255.3 494.8 257.3 491.5C258.5 489.3 257.3 487.9 245.1 477.5L233.4 467.5L295.2 467.2L357 467V456V445L294.9 444.8L232.8 444.5L244.8 434.2C251.4 428.5 257.1 423.2 257.4 422.5C258.3 420.2 246.8 406.9 244 407.1C243.2 407.2 241.5 407.7 240.3 408.4Z" fill="#4A5565"/>
</g>
<defs>
<clipPath id="clip0_249_91">
<rect width="550" height="550" fill="white"/>
</clipPath>
</defs>
</svg>
