<svg width="550" height="550" viewBox="0 0 550 550" fill="none" xmlns="http://www.w3.org/2000/svg">
<path d="M69.8 35.2C67.7 35.7 66 36.6 66 37C66 37.5 64.7 38.1 63.1 38.5C56.4 39.9 43 51.8 38.9 59.8C38.1 61.3 37.2 62.7 36.9 63C36.6 63.3 35.5 65.5 34.4 68C32.6 72.4 32.5 77 32.2 233L31.9 393.5L34.2 400.5C35.4 404.3 36.7 407.7 37 408C37.4 408.3 39.4 411.1 41.4 414.2C43.5 417.6 47.4 421.7 50.8 424.2C53.9 426.6 57 429.1 57.5 429.7C58.1 430.4 62 432.1 66.3 433.5L74.1 436H192.5H311V458.4C311 479.6 311.1 481.3 313.5 488.7C315 493.3 317 497.5 318.5 498.9C319.9 500.2 321 501.8 321 502.5C321 503.7 326.6 509.1 334.1 515.3C336 516.8 341 519.2 345.3 520.5L353.1 523H416.3C475.8 523 479.9 522.9 486.3 521.1C493.2 519.1 500 515.6 500 513.9C500 513.4 500.6 513 501.3 513C502.9 513 512 503.9 512 502.3C512 501.6 512.6 500.7 513.3 500.3C515.7 498.9 518 494.4 520 487.4C521.9 480.7 522 476.8 522 366.2C522 238.6 522.3 244 515.1 233.5C507.9 222.9 497.6 214.1 490.3 212.1L487.5 211.4L487 141.9L486.5 72.5L484 66.2C482.7 62.7 480.3 58.4 478.7 56.7C477.1 54.9 474.2 51.6 472.3 49.3C468.8 45 466.4 43.5 455 37.7L448.5 34.5L261 34.3C138.5 34.2 72.2 34.5 69.8 35.2ZM436 71.1C445.4 73.1 449 79 449.8 93.7L450.3 104H351.9H253.5L249.7 106.5C247.7 107.9 246 109.5 246 110C246 110.5 244.8 112.2 243.4 113.7C242 115.2 239.3 119.1 237.4 122.4C235.5 125.6 233.1 129 232 129.9C231 130.8 229.3 133.1 228.2 135L226.3 138.5L147.7 138.8L69 139V114.3C69.1 100.6 69.5 87.5 69.9 85.1C71.3 78.1 76.5 72.6 83.1 71C88.6 69.7 430 69.8 436 71.1ZM450 174.5V209H401.7C356.8 209 353 209.1 346.7 211C336 214 324.9 222.3 320 230.8C319.2 232.3 317.9 233.9 317.3 234.5C316.6 235 315 238.2 313.8 241.5L311.5 247.5L311.2 323.7L311 400H199.2C137.8 400 85.8 399.6 83.7 399.1C78.3 397.8 73.2 394.1 71.2 390C69.6 386.8 69.5 377.7 69.2 280.7L69 175H156C253.1 175 246 175.5 252.3 167.8C257.2 161.7 266 149.1 266 148.2C266 147.8 267.4 145.8 269.2 143.7L272.4 140H361.2H450V174.5ZM468 245C468 245.5 469 246 470.3 246C473.6 246.1 479.1 249.1 481.3 252.1C482.4 253.6 483.6 256.7 484.1 259.1C484.5 261.5 484.9 302.5 485 350.2V437H471.1H457.3L456.7 434C455.8 429.8 449.5 423.2 445.2 422C441.1 420.9 394.2 420.6 389 421.7C384.8 422.5 377.2 429.9 376.4 434L375.8 437H361.8H347.9L348.2 347.2C348.5 266.1 348.7 257.2 350.1 254.5C352.4 250.4 354.8 248.5 359.5 246.9C361.7 246.2 363.9 245.2 364.5 244.8C365.9 243.6 468 243.8 468 245ZM420 460C420 464.3 424 470.1 428.3 472.1C432.1 473.8 435.1 474 458.2 474H484L482.9 476.7C481.5 480.5 479.2 482.9 475 484.8C471.9 486.3 465.8 486.5 416.5 486.5C367.2 486.5 361.1 486.3 358 484.8C353.8 482.9 351.5 480.5 350.1 476.7L349 474H374.8C399.5 474 400.8 473.9 405 471.7C409.6 469.4 412.9 464.7 413 460.2C413 458.4 413.6 458 416.5 458C419.4 458 420 458.4 420 460Z" fill="#ECECEC"/>
<path d="M92.5 88.9C90.9 89.9 88.2 92.2 86.7 94.1C84 97.3 83.9 98 84.2 105C84.5 111.7 84.8 112.9 87.5 115.9C91.9 120.7 95 122 102.7 122C115.5 122 121 116.8 121 104.5C121 96.1 118.7 91.6 113 88.8C108.1 86.3 96.6 86.4 92.5 88.9Z" fill="#ECECEC"/>
<path d="M145 88.8C139.3 91.6 137 96.1 137 104.5C137 116.8 142.5 122 155.5 122C163.8 122 167.6 120.1 171.6 114.1C173.9 110.5 174.2 109.3 173.8 103.3C173.5 97.5 173 96 170.5 93.1C168.8 91.3 166.3 89.2 164.8 88.4C160.9 86.4 149.3 86.6 145 88.8Z" fill="#ECECEC"/>
<path d="M197 88.8C191.3 91.6 189 96.1 189 104.5C189 116.8 194.4 121.9 207.4 122C213.1 122 215.1 121.5 218.8 119.4C224.1 116.2 226 112.3 226 104C226 96.3 224.2 92.8 218.7 89.5C215.1 87.5 213.1 87 207.4 87C203 87.1 199.2 87.7 197 88.8Z" fill="#ECECEC"/>
</svg>
