<svg width="550" height="539" viewBox="0 0 550 539" fill="none" xmlns="http://www.w3.org/2000/svg">
<path d="M244.5 3.1C239 4.7 233.2 6.4 231.5 6.9C225.9 8.4 205.1 20.1 204.2 22.2C204 22.6 203.3 23 202.6 23C201 23 180 43.2 180 44.8C180 45.4 179.6 46 179.1 46C177.9 46 167.5 62.6 165 68.4C164.1 70.7 162.4 74.5 161.3 77C150.4 101.2 150.8 144.7 162.1 168.6C163.7 171.9 165 175 165 175.4C165 176.9 175.8 194.5 177.9 196.4C179.1 197.5 180 198.7 180 199.2C180 200.4 196.7 216.7 200 218.8C201.4 219.7 203.4 221.3 204.6 222.4C207.9 225.4 220.6 232.3 227.7 235L230.9 236.2L231.2 256.3C231.5 273.8 231.8 277 233.4 280C234.4 281.9 235.8 284.4 236.4 285.6C237 286.8 239.8 289.7 242.6 292.2C246.9 295.9 249 297 255.8 298.6L264 300.5V311.2V322H276.5H289V311C289 300.3 289.1 300 291.3 299.9C295.3 299.8 303.8 296.5 308.2 293.4C312.8 290.2 318.9 281.8 320.8 276.1C321.6 274 322 265.6 322 254.3C322 236.2 322 235.9 324.3 235C345 226.5 362.6 212.8 375.3 195C377.9 191.4 380.5 187.9 381 187.3C383.5 184.3 391.5 167 393.2 161C394.2 157.4 395.7 152.2 396.5 149.4C400.9 133.5 400.9 111.5 396.5 94.5C395 89 393.5 83.1 393 81.3C391.9 76.7 381.1 55.4 378.9 53.4C377.8 52.5 377 51.2 377 50.6C377 48 355.1 25.7 350 23C348.6 22.3 345.9 20.4 344 18.9C338.3 14.5 325.1 8.3 312.9 4.3L301.5 0.699995L278 0.399995L254.5 -4.79817e-06L244.5 3.1ZM299 25.9C323.4 33.1 341.7 45.4 355.1 63.5C357.5 66.8 359.8 69.6 360.3 69.8C360.7 70 361 70.8 361 71.6C361 72.4 362.8 76.5 365 80.7C371.9 94.3 375.7 112.6 374.6 127C374 135.1 373.2 139.2 369.5 152.4C367.5 159.5 359.6 174.9 355.8 179.1C354.2 180.8 353 182.4 353 182.8C353 184.4 336.3 200.4 332.8 202.3C331.5 203 328.4 205 325.8 206.8C323.2 208.5 320.7 210 320.2 210C319.7 210 315.9 211.6 311.8 213.5C305.6 216.3 295.4 219 290.3 219C289.3 219 289 211.9 289 186.6V154.2L294.3 151.2C300.7 147.6 304.4 143.4 307.9 136C310 131.5 310.4 129 310.4 122C310.5 111.7 307.9 104.8 301.6 98.2C295.2 91.4 288.3 88.6 277.2 88.2C268.3 87.8 267.7 87.9 260.7 91.3C255.9 93.7 252.3 96.2 249.9 99.2C243.5 107 242.6 109.4 242.6 121C242.5 132.8 243.6 137.2 248 142.2C249.6 144 251 145.8 251 146.1C251 146.5 253.9 148.5 257.5 150.6L264 154.5V186.7C264 223.3 265 219.7 254.9 218.1C247.1 216.8 231.1 209.8 222 203.7C206.1 193 193.6 177.8 185.7 159.6C183.6 154.7 181.4 148.3 180.9 145.3C180.4 142.4 179.6 137.4 179 134.2C177.2 123.5 178.6 104 182.1 93C184.3 86 192 70 193.1 70C193.4 70 194.3 68.6 195.1 66.9C197.1 62 217.1 42.2 223.3 38.9C224.7 38.1 228.4 36 231.6 34.2C234.8 32.5 237.9 31 238.6 31C239.2 31 241.8 30.1 244.2 29C253.3 25 259 24.1 276 24.1C289.4 24 293.7 24.4 299 25.9ZM281.9 114.8C286.1 118.8 286.7 122.1 284 126.5C280.1 132.8 275.1 133.8 270.1 129.1C267.5 126.7 267 125.4 267 121.7C267 117.8 267.4 116.8 270.3 114.6C274.5 111.2 278.3 111.3 281.9 114.8ZM297.8 255.5C297.6 262.3 296.8 268.6 296.1 270C293.8 274.6 289.2 276 276 276C257.1 276 255.8 274.7 255.2 256L254.8 243.5H276.5H298.2L297.8 255.5Z" fill="#ECECEC"/>
<path d="M88.5 132.8C79.8 135.7 72.1 142.4 67.9 150.7L64.5 157.5L64.2 200.7L63.9 244H76.5H89V204.5C89 162.7 89.1 162 93.7 157.8C95.3 156.3 98.3 156 114.6 155.8L133.5 155.5V144V132.5L112 132.3C100.2 132.3 89.6 132.5 88.5 132.8Z" fill="#ECECEC"/>
<path d="M419 144V156H437.1C455.8 156 458 156.4 461.2 160.4C462.8 162.3 463 166.2 463 203.2V244H475.6H488.1L487.8 199.7C487.6 168.6 487.1 154.7 486.3 152.8C484.8 149.4 478.1 140.6 476.6 140.1C476 139.9 474.1 138.6 472.4 137.4C466.2 132.7 462.2 132 439.9 132H419V144Z" fill="#ECECEC"/>
<path d="M30.1 267C23.6 270 15 277.2 15 279.7C15 280.4 14.6 281 14.1 281C13.7 281 12.3 283.3 11.1 286.1C9.1 291.1 9 292.7 9 332.6C9 377.5 8.8 376.2 15 385.5C16.1 387.1 17.3 389.1 17.6 389.7C17.9 390.4 18.8 391 19.5 391C20.1 391 21.5 392 22.6 393.1C23.6 394.3 26.3 396.1 28.5 397.1C32.3 398.9 37.9 399 141.2 399H249.8L252.4 395.9C254.5 393.4 255 391.8 255 387.5V382.1L233 360L211 338V315C211 295.7 210.7 291.4 209.3 287.8C205.3 277.9 198.3 270.7 189 267C184.1 265.1 181.8 265 109.2 265C37 265 34.4 265.1 30.1 267ZM182.9 292.5L186 296.1V319.8C186 332.8 186.4 345.1 187 347C187.7 349.4 191.8 354.3 200.7 363.2L213.5 376L129 375.9C66.2 375.9 43.6 375.6 41.1 374.7C39.2 374 36.7 372.2 35.6 370.7C33.6 368 33.5 366.5 33.2 335.2C33 317.2 33.2 301 33.5 299.2C33.8 297.4 35.5 294.4 37.2 292.5L40.2 289H110H179.8L182.9 292.5Z" fill="#ECECEC"/>
<path d="M54 332V344H66H78V332V320H66H54V332Z" fill="#ECECEC"/>
<path d="M98 332V344H132H166V332V320H132H98V332Z" fill="#ECECEC"/>
<path d="M364.5 266.2C360.7 267.6 352.1 273.6 349.7 276.7C348.7 278 347.3 279.6 346.7 280.3C346 280.9 344.7 283.8 343.8 286.6C342.3 290.9 342 295.5 342 314.7V337.6L319.9 359.7L297.8 381.8V388.1C297.8 393.7 298.1 394.7 300.5 396.7L303.1 399H410.9C519.5 399 522.5 398.9 526.9 395.6C528.7 394.2 538.2 384.7 539.7 382.7C540.4 381.8 541.4 379.2 542 376.8C543.3 371 543.3 293.9 541.9 288.1C540.8 283 534.9 275.1 529.2 271C520.6 264.8 523.1 265 441.7 265.1C392.5 265.1 366.5 265.5 364.5 266.2ZM515.2 291.9L518.5 294.8V332.4C518.5 369.2 518.5 370 516.4 372C515.2 373.2 512.5 374.5 510.4 375C508.2 375.5 469.1 376 422.9 376H339.3L352.7 362.5L366 349.1V324.3C366 302.2 366.2 299.1 367.9 295.4C369 293.1 370.6 290.7 371.7 290.1C372.9 289.4 395.3 289.1 442.7 289H512L515.2 291.9Z" fill="#ECECEC"/>
<path d="M386 332V344H398H410V332V320H398H386V332Z" fill="#ECECEC"/>
<path d="M431 332V344H465H499V332V320H465H431V332Z" fill="#ECECEC"/>
<path d="M64.2 431.2C64.6 440.2 65.1 442.3 67.7 447.5C71.2 454.3 75.2 458.4 82.5 462.6L87.5 465.5L142.3 465.8L197 466.1V487.5V509H186H175V520.5V532H276H377V520.5V509H366H355V487.5V466H408.6H462.3L469.5 462.5C475.1 459.8 477.6 457.9 480.8 453.8C486.4 446.5 487.1 444.1 487.7 431.7L488.3 421H475.6H463V428.6C463 435.5 462.7 436.5 460.5 438.6C459.1 439.9 456.3 441.4 454.2 442C451.6 442.8 398.4 443 273.2 442.8L95.8 442.5L92.4 438.8C89.2 435.3 89 434.6 89 428V421H76.4H63.7L64.2 431.2ZM330 487.5V509H276H222V487.5V466H276H330V487.5Z" fill="#ECECEC"/>
</svg>
