<svg width="550" height="550" viewBox="0 0 550 550" fill="none" xmlns="http://www.w3.org/2000/svg">
<g clip-path="url(#clip0_249_115)">
<path d="M174.1 7.1C168.3 10.9 163 15 162.2 16.1C161.5 17.1 160.4 18 159.8 18C159.2 18 155.7 20.2 152 23C148.3 25.7 144.8 28 144.2 28C143.7 28 143 28.6 142.7 29.4C142.4 30.2 138.4 33.3 133.8 36.3C129.2 39.3 123.7 43.4 121.5 45.4C119.3 47.4 117.1 49 116.7 49C115.9 49 104.9 56.9 104 58.1C103.7 58.4 100.5 60.8 96.7 63.4L90 68H79.5C69.7 68 69 67.9 69 66C69 64.9 68.1 63.1 67 62C65.1 60.1 63.7 60 34.5 60C5.3 60 3.9 60.1 2 62C0 64 0 65.3 0 124.4V184.9L2.4 187.4L4.7 190H34.2H63.7L66.4 187.5C68.7 185.4 69 184.3 69 178.5V172H99.8C133.7 172 139.2 171.3 152.5 165.1C162.1 160.7 171.4 152.4 206.1 117.4C243.7 79.4 242.7 81 241.7 65.6C240.9 51.1 238.6 52 277.1 52C312.5 52 313 51.8 320.2 44.4C325.2 39.1 327 34.4 327 26.3C327 16.6 325.5 12.2 320.6 7.6C312.1 -0.400003 316.1 -2.83122e-06 246.5 -2.83122e-06H184.5L174.1 7.1ZM302.2 19.2C307 20.6 308.7 23.5 307.4 28.1C305.9 33.5 303.4 33.8 267.9 33.9L236.3 34L232.2 36.9C230 38.5 227.9 40.3 227.6 40.8C227.3 41.3 223.2 41.5 218.2 41.2C209 40.7 203.5 41.8 199.7 44.9C193.3 50.1 186.4 56.7 168.3 74.9C157.1 86.2 148 95.8 148 96.3C148 98 159.1 110 160.7 110C161.5 110 173.2 99 186.6 85.5C209.6 62.5 211.3 61 214.7 61C219.5 61 223 64.2 223 68.6C223 71.6 219.8 75.1 189.3 105.6C170.7 124.1 153.8 140.4 151.8 141.8C149.7 143.1 148 144.6 148 145C148 145.4 144.4 147.1 140.1 148.8C129.7 152.9 119.9 154 91.8 154H69V120V86H83.6C95.6 86 98.7 85.7 101.3 84.2C103 83.3 113 76.2 123.5 68.4C133.9 60.7 145 52.8 148.1 50.8C151.2 48.8 154.7 46.2 155.8 45C156.9 43.8 158.9 42.2 160.2 41.6C161.6 40.9 168.7 35.8 176.1 30.4C183.5 25 190.4 20 191.5 19.3C194.3 17.6 296.6 17.5 302.2 19.2ZM51 124.5V171H34.5H18V124.5V78H34.5H51V124.5Z" fill="#ECECEC"/>
<path d="M283.5 62.7C266.7 79.4 266 80.4 266 86.2V91.3L279.8 105.2C287.5 112.8 293.9 119 294.1 119C294.9 119 308 106 308 105.2C308 104.9 306.6 103.1 304.8 101.3C301.8 98.2 301.8 98 303.8 98C306.9 98 321.4 101.2 322 102.1C322.3 102.4 325.2 103.5 328.5 104.4C339.7 107.5 359 115.6 359 117.1C359 117.6 359.6 118 360.3 118C360.9 118 365 120.3 369.3 123C373.6 125.8 377.5 128 377.9 128C378.3 128 379.5 129 380.6 130.2C381.7 131.5 384.8 134.1 387.4 136C394.2 140.9 408.6 155.3 413.9 162.5C416.4 165.8 419.6 169.8 421.2 171.3C422.7 172.9 424 174.6 424 175.1C424 175.6 425.6 178.4 427.5 181.4C429.4 184.4 431.7 188.7 432.6 190.9C433.5 193.2 434.5 195 434.9 195C436.4 195 443.6 213.3 446.5 224.5C447.5 228.3 448.6 231.7 449 232C450.4 232.9 453.2 251.4 453.7 263.2L454.3 275H463.8H473.3L472.7 261.2C472 244.3 467.1 217.7 464 213.5C463.6 212.9 462.5 210 461.5 207C458.6 198 450.9 180 449.9 180C449.4 180 448.2 178.3 447.3 176.2C445 171.4 436.9 159.1 431.1 151.7C424.8 143.7 409 127.7 401.6 121.8C398.3 119.1 395.1 116.2 394.7 115.4C394.3 114.6 393.5 114 393 114C392.5 114 388.7 111.7 384.6 109C380.5 106.2 376.7 104 376.2 104C375.7 104 374 102.9 372.4 101.5C369.7 99.2 357.3 93.6 345.5 89.4C342.8 88.4 340.3 87.3 340 86.9C339.1 85.7 323.6 81.8 310.6 79.6L297.7 77.4L302.8 72.3C305.7 69.4 308 66.9 308 66.6C308 65.6 295.3 53 294.3 53C293.7 53 288.9 57.4 283.5 62.7Z" fill="#ECECEC"/>
<path d="M242.4 129.4C240.7 130.7 240.5 132.3 240.2 144.5C239.9 157 239.7 158.3 237.9 158.7C236.9 159 236 159.6 236 160C236 160.4 234.8 161.1 233.3 161.4C231.7 161.8 227.6 163.3 224.1 164.7L217.7 167.4L211.1 160.3C202.2 150.6 196.5 148.1 190.7 151.1C187.9 152.6 152.6 187.9 151.1 190.7C149.5 193.8 149.7 198.6 151.6 201.8C152.5 203.3 156.5 207.5 160.3 211.1L167.4 217.7L164.7 224.1C163.3 227.6 161.8 231.7 161.4 233.2C161.1 234.8 160.4 236 160 236C159.6 236 159 236.9 158.7 237.9C158.3 239.7 157 239.9 144.5 240.2C132.3 240.5 130.7 240.7 129.4 242.4C128.3 244 128 250 128 273.9C128 290.2 128.3 304.5 128.6 305.6C129.5 309.1 133.3 310 146.1 310C157.3 310 158.2 310.1 158.7 312C159 313.1 159.6 314 160 314C160.5 314 161.1 315.4 161.5 317.1C161.9 318.8 163.3 322.7 164.6 325.6C165.9 328.6 167 331.4 167 331.7C167 332.1 163.4 335.8 159 339.9C150.6 347.8 148.9 351.3 150.4 357.4C151 359.9 187 396.9 190.8 398.9C196.4 401.9 202.3 399.2 211.5 389.2L217.6 382.6L222.1 384.5C224.5 385.5 229.4 387.3 233 388.5L239.5 390.7L240 404.4C240.7 423.5 237.7 422 275 422C312.3 422 309.3 423.5 310 404.4L310.5 390.7L317 388.5C320.6 387.3 325.2 385.6 327.3 384.7C332.2 382.6 333.3 383.2 340.1 391.1C345.7 397.4 350.1 400 355.3 400C358 400 361.1 397.3 379.2 379.2C397.3 361.1 400 358 400 355.3C400 350.1 397.4 345.7 391.1 340.1C383.2 333.3 382.6 332.2 384.7 327.3C385.6 325.2 387.3 320.6 388.5 317L390.7 310.5L404.4 310C423.5 309.3 422 312.3 422 275C422 237.7 423.5 240.7 404.4 240L390.7 239.5L388.5 233C387.3 229.4 385.5 224.5 384.5 222.1L382.6 217.6L389.1 211.6C399.6 201.7 402 196.6 398.9 190.8C397.2 187.5 360.2 151.2 357.9 150.5C356.7 150.1 353.8 150.1 351.4 150.5C347.6 151 346.2 152 340.4 158.5C336.8 162.6 333.1 166.1 332.4 166.4C331.6 166.7 328.5 165.9 325.6 164.6C322.6 163.3 318.8 161.9 317.1 161.5C315.4 161.1 314 160.5 314 160C314 159.6 313.1 159 312 158.7C310.1 158.2 310 157.3 310 146.1C310 133.3 309.1 129.5 305.6 128.6C304.5 128.3 290.2 128 273.9 128C250 128 244 128.3 242.4 129.4ZM292 158.9C292 170 292.2 171.1 294.3 173.4C295.7 174.9 299 176.5 302.8 177.4C310.3 179.4 323.8 185 327.8 187.9C333 191.6 336.1 190.8 343.7 183.7C347.4 180.3 351.2 176.6 352 175.6C353.6 173.8 354.1 174.2 364.3 184.4C370.2 190.3 375 195.5 375 195.8C375 196.2 371.6 200.1 367.5 204.5C360.7 211.8 360 212.9 360 216.7C360 219.5 360.6 221.5 361.9 222.7C365.1 225.8 370.4 238.4 374 251.8C375.5 257.4 377.2 258 391.6 258H403V275V292H391.6C376.5 292 375.5 292.4 373.5 299.7C370.8 309.6 364.9 324 362.4 326.7C360.7 328.6 360 330.5 360 333.4C360 337.1 360.7 338.2 367.5 345.4C371.6 349.7 375 353.6 375 354C375 355 355 375 354 375C353.6 375 349.7 371.6 345.4 367.5C338.2 360.7 337.1 360 333.4 360C330.5 360 328.6 360.7 326.7 362.4C324 364.9 309.6 370.8 299.7 373.5C292.4 375.5 292 376.5 292 391.6V403H275H258V391.6C258 377.2 257.4 375.5 251.8 374C238.4 370.4 225.8 365.1 222.7 361.9C221.5 360.6 219.5 360 216.7 360C212.9 360 211.8 360.7 204.5 367.5C200.1 371.6 196.2 375 195.8 375C195.5 375 190.3 370.2 184.4 364.3C174.2 354.1 173.8 353.6 175.6 352C176.6 351.2 180.3 347.4 183.8 343.7C190.8 336.1 191.6 333 187.9 327.8C185 323.8 179.4 310.3 177.4 302.8C176.5 299 174.9 295.7 173.4 294.3C171.1 292.2 170 292 158.9 292H147V275V258H158.9C170.1 258 171.1 257.8 173.4 255.7C174.8 254.4 176.4 251.4 176.9 248.9C178.5 242 183.7 228.8 187 223.6C192.2 215.5 191.6 214 177.8 199.7L174.1 195.8L184.9 184.9L195.8 174.1L199.7 177.8C214 191.6 215.5 192.2 223.6 187C228.8 183.7 242 178.5 248.9 176.9C251.4 176.4 254.4 174.8 255.7 173.4C257.8 171.1 258 170.1 258 158.9V147H275H292V158.9Z" fill="#ECECEC"/>
<path d="M258.4 198C251.9 199.3 243.7 201.9 243.1 202.9C242.8 203.4 239.2 205.4 235.1 207.4C225 212.5 212.5 225 207.4 235.1C205.4 239.2 203.3 242.8 202.9 243.1C202.4 243.4 201 246.8 199.9 250.6C195.5 265.3 196.5 293.4 201.8 303.9C210.3 320.6 211.7 322.8 220.1 331C227.3 338.1 230.6 340.4 239.4 344.8C252.2 351.2 259.8 353 275 353C290.2 353 297.3 351.3 310.6 344.6C320.2 339.8 322.9 337.8 330.4 330.4C337.8 322.9 339.8 320.2 344.6 310.6C351.3 297.3 353 290.2 353 275C353 259.8 351.2 252.2 344.8 239.4C340.4 230.6 338.1 227.3 331 220.1C322.8 211.7 320.6 210.3 303.9 201.8C297.9 198.7 287.3 197 274.5 197.1C267.9 197.2 260.6 197.6 258.4 198ZM289.5 217.7C290.6 218.3 294.6 220 298.3 221.5C304.4 224 316 231.4 316 232.9C316 233.2 318 235.6 320.4 238.2C325.9 244.1 332 257.2 332 263C332 264.1 332.5 265 333 265C333.6 265 334 269 334 275C334 280.5 333.6 285 333.1 285C332.6 285 331.9 286.9 331.5 289.2C330.2 297.4 323.7 308.9 316.3 316.3C308.9 323.7 297.4 330.2 289.3 331.5C286.9 331.9 285 332.6 285 333.1C285 333.6 280.5 334 275 334C269.5 334 265 333.6 265 333.1C265 332.6 263.3 332 261.2 331.6C246.1 329.2 230.4 316.9 222.9 301.5C220.8 297 219 292.7 219 291.9C219 291.1 218.4 289.8 217.8 289.1C216.2 287.6 216 261.3 217.5 260.2C218.1 259.8 219.1 257.7 219.9 255.5C223.9 243.6 230.7 234.4 240.4 227.6C246.3 223.5 255.8 219 258.6 219C259.4 219 260 218.6 260 218.1C260 217.6 261.2 216.9 262.8 216.7C267.8 215.8 287.5 216.6 289.5 217.7Z" fill="#ECECEC"/>
<path d="M259.3 224.5C250.9 226.8 245 230.5 237.5 238.3C226.3 249.8 223 258.1 223 275C223 286.9 225.4 296.2 230.5 303.6C234.7 309.6 244.4 319 246.5 319C247.2 319 248 319.6 248.3 320.3C248.6 321.1 251.7 322.8 255.2 324.1C260.7 326.2 263.2 326.5 274.5 326.5C288.5 326.5 297.3 324.7 301 321C302 320 304.2 318.4 305.7 317.6C308.7 316.1 318 306.7 318 305.2C318 304.7 319.1 303.1 320.5 301.6C324.7 297 326.5 289.1 326.5 274.5C326.5 263.2 326.2 260.7 324.1 255.2C322.8 251.7 321.1 248.6 320.3 248.3C319.6 248 319 247.2 319 246.5C319 244.4 309.6 234.7 303.6 230.5C296 225.3 287 223 274.5 223.1C269 223.1 262.2 223.8 259.3 224.5ZM286.5 243.9C291.6 245.7 297.7 250.8 303.4 258C309.5 265.7 309.4 284.4 303.2 292.3C301 295 295 301 292.4 303.1C284 309.6 266.1 309.8 257.9 303.3C251.4 298.2 245.9 291.7 244 287C241.4 280.3 241.3 269.8 243.9 263C246.4 256.5 256.3 246.5 262.8 243.9C269.1 241.5 279.5 241.4 286.5 243.9Z" fill="#ECECEC"/>
<path d="M77.3 288.2C77.7 296.1 78.8 307.2 79.9 313C82.1 324.7 85.9 339.2 87 340C87.4 340.3 88.7 343.2 89.8 346.5C94.7 360.5 100.5 373 102.1 373C102.5 373 103.2 374 103.6 375.2C104 376.5 106.4 380.6 109 384.5C111.5 388.3 113.9 392.3 114.3 393.2C114.6 394.2 115.3 395 115.8 395C116.3 395 118.9 397.8 121.6 401.2C127.2 408.5 143.4 424.4 151.7 431.1C159.6 437.3 171.8 445.3 175.8 446.9C177.6 447.7 179.4 448.9 179.8 449.6C180.7 451.2 193.5 456.8 205 460.7C209.1 462.1 213 463.6 213.5 464C215.5 465.5 226.7 468.3 239.2 470.4L252 472.6L247 477.5C244.2 480.2 242 482.8 242 483.3C242 484.5 254.6 497 255.7 497C256.1 497 262.7 490.7 270.3 483.1L284 469.3V464V458.7L270.3 444.9C262.7 437.3 256.1 431 255.7 431C254.6 431 242 443.5 242 444.6C242 445 243.4 446.9 245.2 448.7C248 451.6 248.2 452 246.4 452C243.3 452 232.6 449.8 232 449C231.7 448.6 228.4 447.5 224.5 446.5C213.3 443.6 195 436.4 195 434.9C195 434.5 193.2 433.5 190.9 432.6C188.7 431.7 184.4 429.4 181.4 427.5C178.4 425.6 175.6 424 175.1 424C174.6 424 172.9 422.7 171.3 421.2C169.8 419.6 165.8 416.4 162.5 413.9C155.3 408.6 140.9 394.2 136 387.4C134.1 384.8 131.5 381.7 130.3 380.6C129 379.5 128 378.2 128 377.7C128 377.3 126.7 375 125.2 372.7C123.6 370.4 121.2 366.5 119.9 364C118.6 361.5 117.2 359.3 116.8 359C115.3 357.8 109.9 345.1 106.4 334.2C104.3 327.8 102.3 322.3 102 322C100 320.4 96 294 96 282.7V274H86.4H76.7L77.3 288.2Z" fill="#ECECEC"/>
<path d="M484.4 360.8C482.1 362.3 481 366 481 371.9V378H450.4C426.1 378 418.4 378.3 412.7 379.6C405.4 381.2 389.3 388.1 387.5 390.3C387 391 384.3 393.3 381.5 395.5C378.8 397.7 362.3 413.7 344.9 431.1C307.2 468.8 307.4 468.5 308.3 484C309.1 498.9 311.7 497.9 271.9 498.2L239.3 498.5L234.4 501.5C227 506.1 223.6 512.4 223.1 522.1C222.5 535.6 226.7 543.2 237.4 548.1C241.2 549.8 245.4 550 303.6 550H365.8L371.9 545.5C375.3 543 378.4 541 378.8 541C379.3 541 381.7 539.2 384.1 536.9C386.5 534.7 389.8 532.1 391.4 531.3C395.5 529.2 404 522.7 404 521.8C404 521.4 404.5 521 405 521C405.6 521 412 516.6 419.3 511.2C426.6 505.8 434.5 500.1 436.9 498.5C439.4 497 442.9 494.2 444.8 492.4C446.7 490.5 448.7 489 449.3 489C449.8 489 452.4 487.4 455 485.5C459.7 482 459.8 482 470.4 482C480.3 482 481 482.1 481 484C481 485.1 481.9 486.9 483 488C484.9 489.9 486.3 490 515.5 490C544.7 490 546.1 489.9 548 488C550 486 550 484.7 550 425.9C550 365.8 549.8 362.9 546.6 360.8C545.2 359.8 485.8 359.8 484.4 360.8ZM532 425.5V472H515.5H499V425.5V379H515.5H532V425.5ZM481 429.5V463H466C456.7 463 451 463.4 451 464C451 464.5 450.5 465 449.9 465C449.3 465 445.7 467.2 442 470C438.3 472.7 434.8 475 434.2 475C433.6 475 432.5 475.9 431.8 476.9C431 478 425.9 481.9 420.5 485.6C415 489.3 409.9 493.2 409.2 494.2C408.5 495.2 407.5 496 406.9 496C405.5 496 392 506 392 507.1C392 507.6 391.5 508 390.8 508C390.2 508 387.4 509.7 384.6 511.8C381.8 514 378.1 516.4 376.4 517.3C374.8 518.1 372.1 520.2 370.4 521.8C368.8 523.4 364.9 526.4 361.7 528.4L356 532L303.2 531.9C265.1 531.9 249.5 531.6 247 530.7C242.9 529.3 241.1 525.5 242.6 521.2C244.2 516.5 247.5 516.1 282.3 516.1L314.1 516L318.9 511.5C323.4 507.3 327 505.7 327 508C327 508.6 330.3 509 335 509C339.4 509 343 508.6 343 508.2C343 507.7 344.9 506.7 347.3 506C350.7 504.9 356.1 500.1 376.8 479.6C390.6 465.8 402 454 402 453.3C402 451.6 390.5 440 388.9 440C388.1 440 376.5 451.1 363.1 464.5C340.4 487.2 338.4 489 335.1 489C330.4 489 327 485.7 327 481.2C327 478.1 329.6 475.3 360.3 444.7C378.7 426.4 395.6 409.8 397.9 407.8C403.2 403.1 416.3 398 425.5 397C429.4 396.6 443.4 396.2 456.8 396.1L481 396V429.5Z" fill="#ECECEC"/>
</g>
<defs>
<clipPath id="clip0_249_115">
<rect width="550" height="550" fill="white"/>
</clipPath>
</defs>
</svg>
